HIERARCHY
ROOT Hips
{
	OFFSET 0.000000 0.000000 0.000000
	CHANNELS 6 Xposition Yposition Zposition Xrotation Yrotation Zrotation
	JOINT LeftUpLeg_virtual
	{
		OFFSET 0.000000 0.000000 0.000000
		CHANNELS 3 Xrotation Yrotation Zrotation
		JOINT LeftUpLeg
		{
			OFFSET 13.026900 -6.336304 -1.092800
			CHANNELS 3 Xrotation Yrotation Zrotation
			JOINT LeftLeg
			{
				OFFSET 0.524474 -46.096886 9.782700
				CHANNELS 3 Xrotation Yrotation Zrotation
				JOINT LeftFoot
				{
					OFFSET -0.524474 -53.427422 -12.948200
					CHANNELS 3 Xrotation Yrotation Zrotation
					JOINT LeftToeBase
					{
						OFFSET 0.192200 -14.009700 16.364100
						CHANNELS 3 Xrotation Yrotation Zrotation
						JOINT LeftToe_End
						{
							OFFSET -1.784700 -0.561700 9.474800
							CHANNELS 3 Xrotation Yrotation Zrotation
							End Site
							{
								OFFSET 0 0 0
							}
						}
					}
				}
			}
		}
	}
	JOINT RightUpLeg_virtual
	{
		OFFSET 0.000000 0.000000 0.000000
		CHANNELS 3 Xrotation Yrotation Zrotation
		JOINT RightUpLeg
		{
			OFFSET -12.883000 -6.336304 -1.092800
			CHANNELS 3 Xrotation Yrotation Zrotation
			JOINT RightLeg
			{
				OFFSET -0.524587 -46.096825 9.782800
				CHANNELS 3 Xrotation Yrotation Zrotation
				JOINT RightFoot
				{
					OFFSET 0.524587 -53.427383 -12.948300
					CHANNELS 3 Xrotation Yrotation Zrotation
					JOINT RightToeBase
					{
						OFFSET -0.192200 -14.009700 16.364100
						CHANNELS 3 Xrotation Yrotation Zrotation
						JOINT RightToe_End
						{
							OFFSET 1.784700 -0.561700 9.474800
							CHANNELS 3 Xrotation Yrotation Zrotation
							End Site
							{
								OFFSET 0 0 0
							}
						}
					}
				}
			}
		}
	}
	JOINT Spine_virtual
	{
		OFFSET 0.000000 0.000000 0.000000
		CHANNELS 3 Xrotation Yrotation Zrotation
		JOINT Spine
		{
			OFFSET 0.072000 7.257294 -0.789700
			CHANNELS 3 Xrotation Yrotation Zrotation
			JOINT Spine1
			{
				OFFSET 0.000000 12.508769 -0.658067
				CHANNELS 3 Xrotation Yrotation Zrotation
				JOINT Spine1_split
				{
					OFFSET 0.000000 12.508769 -0.658067
					CHANNELS 3 Xrotation Yrotation Zrotation
					JOINT Spine2
					{
						OFFSET 0.000000 12.508769 -0.658067
						CHANNELS 3 Xrotation Yrotation Zrotation
						JOINT Neck_virtual
						{
							OFFSET 0.000000 0.000000 0.000000
							CHANNELS 3 Xrotation Yrotation Zrotation
							JOINT Neck
							{
								OFFSET 0.000000 14.033295 7.520400
								CHANNELS 3 Xrotation Yrotation Zrotation
								JOINT Head
								{
									OFFSET 0.000000 8.198502 5.703100
									CHANNELS 3 Xrotation Yrotation Zrotation
									JOINT HeadTop_End
									{
										OFFSET 0.000000 17.760803 13.332701
										CHANNELS 3 Xrotation Yrotation Zrotation
										End Site
										{
											OFFSET 0 0 0
										}
									}
								}
							}
						}
						JOINT LeftShoulder_virtual
						{
							OFFSET 0.000000 0.000000 0.000000
							CHANNELS 3 Xrotation Yrotation Zrotation
							JOINT LeftShoulder
							{
								OFFSET 6.292450 5.785301 -0.669000
								CHANNELS 3 Xrotation Yrotation Zrotation
								JOINT LeftShoulder_split
								{
									OFFSET 6.292450 5.785301 -0.669000
									CHANNELS 3 Xrotation Yrotation Zrotation
									JOINT LeftArm
									{
										OFFSET 13.907140 -6.093903 1.965100
										CHANNELS 3 Xrotation Yrotation Zrotation
										JOINT LeftForeArm
										{
											OFFSET 34.140198 0.000000 0.000000
											CHANNELS 3 Xrotation Yrotation Zrotation
											JOINT LeftHand
											{
												OFFSET 40.960209 0.000000 0.000000
												CHANNELS 3 Xrotation Yrotation Zrotation
												End Site
												{
													OFFSET 0 0 0
												}
											}
										}
									}
								}
							}
						}
						JOINT RightShoulder_virtual
						{
							OFFSET 0.000000 0.000000 0.000000
							CHANNELS 3 Xrotation Yrotation Zrotation
							JOINT RightShoulder
							{
								OFFSET -6.292450 5.785301 -0.669000
								CHANNELS 3 Xrotation Yrotation Zrotation
								JOINT RightShoulder_split
								{
									OFFSET -6.292450 5.785301 -0.669000
									CHANNELS 3 Xrotation Yrotation Zrotation
									JOINT RightArm
									{
										OFFSET -13.907140 -6.093903 1.965100
										CHANNELS 3 Xrotation Yrotation Zrotation
										JOINT RightForeArm
										{
											OFFSET -34.140198 0.000000 0.000000
											CHANNELS 3 Xrotation Yrotation Zrotation
											JOINT RightHand
											{
												OFFSET -40.960209 0.000000 0.000000
												CHANNELS 3 Xrotation Yrotation Zrotation
												End Site
												{
													OFFSET 0 0 0
												}
											}
										}
									}
								}
							}
						}
					}
				}
			}
		}
	}
}
MOTION
Frames: 4
Frame Time: 0.03333333
-26.555338 165.729218 37.339828 0.000000 0.000000 0.000000 6.316782 -17.957023 1.174641 -18.810464 7.113216 5.482072 24.712227 12.561260 5.192382 19.066005 -1.530386 1.507007 2.044810 0.550692 -0.212372 0.000000 0.000000 0.000000 6.283198 -17.466132 0.555791 -8.174866 -5.960612 -3.936083 12.532381 -16.014564 -0.273161 30.112607 -2.398421 -3.268916 9.202299 -2.738180 0.117479 0.000000 0.000000 0.000000 5.833239 -15.666116 0.503641 0.201011 3.838810 4.216774 -5.097138 1.185526 -1.683923 2.209268 -2.620055 0.386927 0.000000 0.000000 0.000000 -0.769906 1.222946 -2.401365 -28.189791 1.993232 -0.292073 -6.604974 3.213401 4.250339 0.000000 0.000000 0.000000 -3.799879 1.244021 -1.847924 4.389963 -3.313259 22.222949 4.641648 6.471902 0.952473 -56.546702 -25.152768 23.101558 -23.829453 -47.148728 9.708050 0.000000 0.000000 0.000000 -3.541593 0.756758 -1.469352 -4.746392 -11.983104 -26.266679 -1.192244 -1.909760 -2.196335 -84.811845 34.466637 33.560732 -31.402266 43.616799 -4.306521 0.000000 0.000000 0.000000 
-27.365026 161.795395 38.657082 0.000000 0.000000 0.000000 5.174650 -16.583447 0.508865 -21.213893 8.606236 6.726089 26.878867 13.000596 4.267348 24.697208 -2.282593 2.797324 3.087570 0.619381 -0.369415 0.000000 0.000000 0.000000 5.615270 -14.580297 -0.076390 -9.770691 -7.906131 -6.071688 17.170800 -14.014594 0.843056 35.085831 0.495012 -1.142549 8.345556 -1.588649 -0.309808 0.000000 0.000000 0.000000 4.175126 -13.610320 -0.288091 0.619537 4.024707 4.387142 -5.399715 1.089175 -1.305921 2.580413 -2.891430 0.733875 0.000000 0.000000 0.000000 -1.567195 1.159683 -1.878131 -27.686978 1.218892 -1.115338 -7.229492 1.628230 4.418170 0.000000 0.000000 0.000000 -4.391570 1.100208 -1.428051 5.267916 -2.418401 24.456375 3.759067 4.934820 1.974340 -52.382650 -19.407115 19.126095 -20.349364 -51.259245 11.936421 0.000000 0.000000 0.000000 -4.230574 0.719268 -0.997876 -2.560535 -10.085022 -24.062145 -1.985694 -2.598126 -2.075731 -79.781800 39.094937 31.326741 -30.559322 39.391115 -0.361618 0.000000 0.000000 0.000000 
-28.058388 157.682770 40.112267 0.000000 0.000000 0.000000 4.065093 -15.348670 -0.089490 -23.571941 9.557975 7.806734 28.883186 13.394274 3.519863 29.481808 -2.835099 4.666503 3.990095 0.662042 -0.512692 0.000000 0.000000 0.000000 5.013412 -11.612218 -0.521530 -10.476820 -8.393686 -7.069799 20.226842 -12.227400 1.317375 38.889997 2.505948 0.922295 7.094205 -0.571207 -0.401258 0.000000 0.000000 0.000000 2.419304 -11.959019 -0.789964 0.902695 4.065537 4.417414 -5.764540 0.955867 -0.850418 2.435763 -2.922289 0.714992 0.000000 0.000000 0.000000 -2.629383 1.087208 -1.287683 -26.900253 0.960212 -2.176000 -7.210165 0.180942 4.452103 0.000000 0.000000 0.000000 -4.999448 0.948929 -0.938709 5.649350 -0.422935 27.289778 2.700744 3.086499 2.653829 -49.653201 -16.658505 14.155927 -19.360216 -51.281603 12.309034 0.000000 0.000000 0.000000 -5.199218 0.670203 -0.448475 -0.651416 -7.494702 -23.833826 -2.195198 -2.918982 -1.630687 -75.382872 41.082567 28.110062 -29.390929 33.933568 2.283537 0.000000 0.000000 0.000000 
-28.697485 154.333374 41.957840 0.000000 0.000000 0.000000 3.133370 -14.269908 -0.539020 -24.870602 9.726304 8.196505 30.333615 14.105123 3.192004 32.048289 -2.640580 6.944134 5.208514 0.722260 -0.802672 0.000000 0.000000 0.000000 4.469195 -9.047493 -0.744056 -10.043187 -7.748383 -6.736944 21.143015 -11.566219 1.331879 40.687440 2.406019 1.601610 7.220880 0.145354 0.058617 0.000000 0.000000 0.000000 0.982980 -10.808026 -0.965163 0.887938 4.006046 4.339631 -6.222655 0.826830 -0.415315 1.803560 -2.533455 0.403068 0.000000 0.000000 0.000000 -3.817307 1.021982 -0.754397 -25.728804 0.887449 -3.332582 -6.572769 -0.939978 4.357393 0.000000 0.000000 0.000000 -5.638079 0.834531 -0.499616 5.627695 1.943150 30.364545 1.884174 1.462688 2.985413 -48.997434 -16.925996 9.477912 -21.186420 -47.606746 10.567723 0.000000 0.000000 0.000000 -6.307120 0.654666 0.071303 0.868690 -4.864118 -25.564800 -2.002657 -2.570342 -0.926370 -73.469763 40.717193 25.611789 -28.035737 28.531300 3.667391 0.000000 0.000000 0.000000 
